{
  "accessors": [
    {
      "name": "CocosNucifera-025/100-3698_LOD0_Cocos_Nucifera-Mesh_0_positions",
      "componentType": 5126,
      "count": 1451,
      "min": [
        -3.545124053955078,
        0.0008099999977275729,
        -2.288141965866089
      ],
      "max": [
        3.7045419216156006,
        11.355896949768066,
        0.9264320135116577
      ],
      "type": "VEC3",
      "bufferView": 0,
      "byteOffset": 0
    },
    {
      "name": "CocosNucifera-025/100-3698_LOD0_Cocos_Nucifera-Mesh_0_normals",
      "componentType": 5126,
      "count": 1451,
      "min": [
        -0.9999947547912598,
        -0.9999912977218628,
        -0.9999992847442627
      ],
      "max": [
        0.9999954700469971,
        0.9995542168617249,
        0.9999076128005981
      ],
      "type": "VEC3",
      "bufferView": 1,
      "byteOffset": 0
    },
    {
      "name": "CocosNucifera-025/100-3698_LOD0_Cocos_Nucifera-Mesh_0_texcoords",
      "componentType": 5126,
      "count": 1451,
      "min": [
        0.2759999930858612,
        0.12984099984169006
      ],
      "max": [
        0.7680000066757202,
        1.0107660293579102
      ],
      "type": "VEC2",
      "bufferView": 2,
      "byteOffset": 0
    },
    {
      "name": "CocosNucifera-025/100-3698_LOD0_Cocos_Nucifera-Mesh_0_indices",
      "componentType": 5123,
      "count": 5832,
      "min": [
        0
      ],
      "max": [
        1450
      ],
      "type": "SCALAR",
      "bufferView": 3,
      "byteOffset": 0
    }
  ],
  "asset": {
    "generator": "obj2gltf",
    "version": "2.0"
  },
  "buffers": [
    {
      "name": "CocosNucifera_025_100_3698_LOD0",
      "byteLength": 58096,
      "uri": "data:application/octet-stream;base64,"
    }
  ],
  "bufferViews": [
    {
      "name": "bufferView_0",
      "buffer": 0,
      "byteLength": 17412,
      "byteOffset": 0,
      "byteStride": 12,
      "target": 34962
    },
    {
      "name": "bufferView_1",
      "buffer": 0,
      "byteLength": 17412,
      "byteOffset": 17412,
      "byteStride": 12,
      "target": 34962
    },
    {
      "name": "bufferView_2",
      "buffer": 0,
      "byteLength": 11608,
      "byteOffset": 34824,
      "byteStride": 8,
      "target": 34962
    },
    {
      "name": "bufferView_3",
      "buffer": 0,
      "byteLength": 11664,
      "byteOffset": 46432,
      "target": 34963
    }
  ],
  "materials": [
    {
      "name": "default",
      "pbrMetallicRoughness": {
        "baseColorFactor": [
          0.5,
          0.5,
          0.5,
          1
        ],
        "metallicFactor": 0,
        "roughnessFactor": 1
      },
      "emissiveFactor": [
        0,
        0,
        0
      ],
      "alphaMode": "OPAQUE",
      "doubleSided": false
    }
  ],
  "meshes": [
    {
      "name": "CocosNucifera-025/100-3698_LOD0_Cocos_Nucifera-Mesh",
      "primitives": [
        {
          "attributes": {
            "POSITION": 0,
            "NORMAL": 1,
            "TEXCOORD_0": 2
          },
          "indices": 3,
          "material": 0,
          "mode": 4
        }
      ]
    }
  ],
  "nodes": [
    {
      "name": "CocosNucifera-025/100-3698_LOD0_Cocos_Nucifera",
      "mesh": 0
    }
  ],
  "scene": 0,
  "scenes": [
    {
      "nodes": [
        0
      ]
    }
  ]
}
