{
  "accessors": [
    {
      "name": "Wolf_obj_body.004_Cube.007-Mesh_0_positions",
      "componentType": 5126,
      "count": 983,
      "min": [
        -0.10147199779748917,
        0.0009379999828524888,
        -0.3826889991760254
      ],
      "max": [
        0.10142499953508377,
        0.5835549831390381,
        0.48697298765182495
      ],
      "type": "VEC3",
      "bufferView": 0,
      "byteOffset": 0
    },
    {
      "name": "Wolf_obj_body.004_Cube.007-Mesh_0_normals",
      "componentType": 5126,
      "count": 983,
      "min": [
        -0.9987144470214844,
        -0.9995003342628479,
        -0.9906947016716003
      ],
      "max": [
        0.9979248642921448,
        0.9991547465324402,
        0.9936062693595886
      ],
      "type": "VEC3",
      "bufferView": 1,
      "byteOffset": 0
    },
    {
      "name": "Wolf_obj_body.004_Cube.007-Mesh_0_texcoords",
      "componentType": 5126,
      "count": 983,
      "min": [
        0.019899999722838402,
        0.010499999858438969
      ],
      "max": [
        0.984499990940094,
        0.9761000275611877
      ],
      "type": "VEC2",
      "bufferView": 2,
      "byteOffset": 0
    },
    {
      "name": "Wolf_obj_body.004_Cube.007-Mesh_0_indices",
      "componentType": 5123,
      "count": 5307,
      "min": [
        0
      ],
      "max": [
        982
      ],
      "type": "SCALAR",
      "bufferView": 3,
      "byteOffset": 0
    },
    {
      "name": "Wolf_obj_body.004_Cube.007-Mesh_1_positions",
      "componentType": 5126,
      "count": 82,
      "min": [
        -0.028078999370336533,
        0.5031300187110901,
        0.4134269952774048
      ],
      "max": [
        0.028054000809788704,
        0.5150960087776184,
        0.42274099588394165
      ],
      "type": "VEC3",
      "bufferView": 0,
      "byteOffset": 11796
    },
    {
      "name": "Wolf_obj_body.004_Cube.007-Mesh_1_normals",
      "componentType": 5126,
      "count": 82,
      "min": [
        -0.9981588125228882,
        -0.9991217851638794,
        -0.41351497173309326
      ],
      "max": [
        0.998140811920166,
        0.9991343021392822,
        0.9850834608078003
      ],
      "type": "VEC3",
      "bufferView": 1,
      "byteOffset": 11796
    },
    {
      "name": "Wolf_obj_body.004_Cube.007-Mesh_1_texcoords",
      "componentType": 5126,
      "count": 82,
      "min": [
        0.1679999977350235,
        0.1679999977350235
      ],
      "max": [
        0.8320000171661377,
        0.8320000171661377
      ],
      "type": "VEC2",
      "bufferView": 2,
      "byteOffset": 7864
    },
    {
      "name": "Wolf_obj_body.004_Cube.007-Mesh_1_indices",
      "componentType": 5123,
      "count": 432,
      "min": [
        0
      ],
      "max": [
        81
      ],
      "type": "SCALAR",
      "bufferView": 3,
      "byteOffset": 10616
    },
    {
      "name": "Wolf_obj_body.004_Cube.007-Mesh_2_positions",
      "componentType": 5126,
      "count": 80,
      "min": [
        -0.09519899636507034,
        0.00020799999765586108,
        -0.17591699957847595
      ],
      "max": [
        0.09452400356531143,
        0.02755500003695488,
        0.2411690056324005
      ],
      "type": "VEC3",
      "bufferView": 0,
      "byteOffset": 12780
    },
    {
      "name": "Wolf_obj_body.004_Cube.007-Mesh_2_normals",
      "componentType": 5126,
      "count": 80,
      "min": [
        -0.9931704998016357,
        -0.7581964135169983,
        -0.841275155544281
      ],
      "max": [
        0.9931199550628662,
        0.890035092830658,
        0.9035279154777527
      ],
      "type": "VEC3",
      "bufferView": 1,
      "byteOffset": 12780
    },
    {
      "name": "Wolf_obj_body.004_Cube.007-Mesh_2_texcoords",
      "componentType": 5126,
      "count": 80,
      "min": [
        0.0003000000142492354,
        0.09969999641180038
      ],
      "max": [
        0.9997000098228455,
        0.9997000098228455
      ],
      "type": "VEC2",
      "bufferView": 2,
      "byteOffset": 8520
    },
    {
      "name": "Wolf_obj_body.004_Cube.007-Mesh_2_indices",
      "componentType": 5123,
      "count": 192,
      "min": [
        0
      ],
      "max": [
        79
      ],
      "type": "SCALAR",
      "bufferView": 3,
      "byteOffset": 11480
    },
    {
      "name": "Wolf_obj_body.004_Cube.007-Mesh_3_positions",
      "componentType": 5126,
      "count": 412,
      "min": [
        -0.01823600009083748,
        0.44058001041412354,
        0.3975659906864166
      ],
      "max": [
        0.018216000869870186,
        0.4705989956855774,
        0.4650849997997284
      ],
      "type": "VEC3",
      "bufferView": 0,
      "byteOffset": 13740
    },
    {
      "name": "Wolf_obj_body.004_Cube.007-Mesh_3_normals",
      "componentType": 5126,
      "count": 412,
      "min": [
        -0.9961113929748535,
        -0.8982422351837158,
        -0.9691290855407715
      ],
      "max": [
        0.9960891604423523,
        0.9275527000427246,
        0.9354566335678101
      ],
      "type": "VEC3",
      "bufferView": 1,
      "byteOffset": 13740
    },
    {
      "name": "Wolf_obj_body.004_Cube.007-Mesh_3_texcoords",
      "componentType": 5126,
      "count": 412,
      "min": [
        0.0005000000237487257,
        0.0010999999940395355
      ],
      "max": [
        0.9994999766349792,
        0.9994999766349792
      ],
      "type": "VEC2",
      "bufferView": 2,
      "byteOffset": 9160
    },
    {
      "name": "Wolf_obj_body.004_Cube.007-Mesh_3_indices",
      "componentType": 5123,
      "count": 1788,
      "min": [
        0
      ],
      "max": [
        411
      ],
      "type": "SCALAR",
      "bufferView": 3,
      "byteOffset": 11864
    },
    {
      "name": "Wolf_obj_body.004_Cube.007-Mesh_4_positions",
      "componentType": 5126,
      "count": 245,
      "min": [
        -0.12196599692106247,
        0.16635900735855103,
        -0.14131000638008118
      ],
      "max": [
        0.12190999835729599,
        0.5656369924545288,
        0.4300380051136017
      ],
      "type": "VEC3",
      "bufferView": 0,
      "byteOffset": 18684
    },
    {
      "name": "Wolf_obj_body.004_Cube.007-Mesh_4_normals",
      "componentType": 5126,
      "count": 245,
      "min": [
        -0.9988791346549988,
        -0.9254322052001953,
        -0.940131664276123
      ],
      "max": [
        0.9980238080024719,
        0.997539758682251,
        0.9706489443778992
      ],
      "type": "VEC3",
      "bufferView": 1,
      "byteOffset": 18684
    },
    {
      "name": "Wolf_obj_body.004_Cube.007-Mesh_4_texcoords",
      "componentType": 5126,
      "count": 245,
      "min": [
        -1.0666999816894531,
        0
      ],
      "max": [
        2.07669997215271,
        1.121999979019165
      ],
      "type": "VEC2",
      "bufferView": 2,
      "byteOffset": 12456
    },
    {
      "name": "Wolf_obj_body.004_Cube.007-Mesh_4_indices",
      "componentType": 5123,
      "count": 540,
      "min": [
        0
      ],
      "max": [
        244
      ],
      "type": "SCALAR",
      "bufferView": 3,
      "byteOffset": 15440
    }
  ],
  "asset": {
    "generator": "obj2gltf",
    "version": "2.0"
  },
  "buffers": [
    {
      "name": "Wolf_One_obj",
      "byteLength": 235980,
      "uri": "data:application/octet-stream;base64,"
    }
  ],
  "bufferViews": [
    {
      "name": "bufferView_0",
      "buffer": 0,
      "byteLength": 21624,
      "byteOffset": 0,
      "byteStride": 12,
      "target": 34962
    },
    {
      "name": "bufferView_1",
      "buffer": 0,
      "byteLength": 21624,
      "byteOffset": 21624,
      "byteStride": 12,
      "target": 34962
    },
    {
      "name": "bufferView_2",
      "buffer": 0,
      "byteLength": 14416,
      "byteOffset": 43248,
      "byteStride": 8,
      "target": 34962
    },
    {
      "name": "bufferView_3",
      "buffer": 0,
      "byteLength": 16520,
      "byteOffset": 57664,
      "target": 34963
    },
    {
      "buffer": 0,
      "byteOffset": 74184,
      "byteLength": 13274
    },
    {
      "buffer": 0,
      "byteOffset": 87458,
      "byteLength": 148521
    }
  ],
  "images": [
    {
      "name": "Wolf_Eyes_1",
      "mimeType": "image/jpeg",
      "bufferView": 4
    },
    {
      "name": "Wolf_Body",
      "mimeType": "image/png",
      "bufferView": 5
    }
  ],
  "materials": [
    {
      "name": "Wolf_Body",
      "pbrMetallicRoughness": {
        "baseColorFactor": [
          0.472432,
          0.472432,
          0.472432,
          1
        ],
        "metallicFactor": 0,
        "roughnessFactor": 0.903921569
      },
      "emissiveFactor": [
        0,
        0,
        0
      ],
      "alphaMode": "OPAQUE",
      "doubleSided": false
    },
    {
      "name": "Wolf_Eyes",
      "pbrMetallicRoughness": {
        "baseColorTexture": {
          "index": 0
        },
        "baseColorFactor": [
          1,
          1,
          1,
          1
        ],
        "metallicFactor": 0,
        "roughnessFactor": 1
      },
      "emissiveTexture": {
        "index": 0
      },
      "emissiveFactor": [
        1,
        1,
        1
      ],
      "alphaMode": "OPAQUE",
      "doubleSided": false
    },
    {
      "name": "Wolf_Claws",
      "pbrMetallicRoughness": {
        "baseColorFactor": [
          0.167357,
          0.159407,
          0.136949,
          1
        ],
        "metallicFactor": 0,
        "roughnessFactor": 1
      },
      "emissiveFactor": [
        0,
        0,
        0
      ],
      "alphaMode": "OPAQUE",
      "doubleSided": false
    },
    {
      "name": "Wolf_Teeth",
      "pbrMetallicRoughness": {
        "baseColorFactor": [
          0.167357,
          0.159407,
          0.136949,
          1
        ],
        "metallicFactor": 0,
        "roughnessFactor": 1
      },
      "emissiveFactor": [
        0,
        0,
        0
      ],
      "alphaMode": "OPAQUE",
      "doubleSided": false
    },
    {
      "name": "Wolf_Fur",
      "pbrMetallicRoughness": {
        "baseColorTexture": {
          "index": 1
        },
        "baseColorFactor": [
          1,
          1,
          1,
          1
        ],
        "metallicFactor": 0,
        "roughnessFactor": 1
      },
      "emissiveFactor": [
        0,
        0,
        0
      ],
      "alphaMode": "BLEND",
      "doubleSided": true
    }
  ],
  "meshes": [
    {
      "name": "Wolf_obj_body.004_Cube.007-Mesh",
      "primitives": [
        {
          "attributes": {
            "POSITION": 0,
            "NORMAL": 1,
            "TEXCOORD_0": 2
          },
          "indices": 3,
          "material": 0,
          "mode": 4
        },
        {
          "attributes": {
            "POSITION": 4,
            "NORMAL": 5,
            "TEXCOORD_0": 6
          },
          "indices": 7,
          "material": 1,
          "mode": 4
        },
        {
          "attributes": {
            "POSITION": 8,
            "NORMAL": 9,
            "TEXCOORD_0": 10
          },
          "indices": 11,
          "material": 2,
          "mode": 4
        },
        {
          "attributes": {
            "POSITION": 12,
            "NORMAL": 13,
            "TEXCOORD_0": 14
          },
          "indices": 15,
          "material": 3,
          "mode": 4
        },
        {
          "attributes": {
            "POSITION": 16,
            "NORMAL": 17,
            "TEXCOORD_0": 18
          },
          "indices": 19,
          "material": 4,
          "mode": 4
        }
      ]
    }
  ],
  "nodes": [
    {
      "name": "Wolf_obj_body.004_Cube.007",
      "mesh": 0
    }
  ],
  "samplers": [
    {
      "magFilter": 9729,
      "minFilter": 9986,
      "wrapS": 10497,
      "wrapT": 10497
    }
  ],
  "scene": 0,
  "scenes": [
    {
      "nodes": [
        0
      ]
    }
  ],
  "textures": [
    {
      "name": "Wolf_Eyes_1",
      "sampler": 0,
      "source": 0
    },
    {
      "name": "Wolf_Body",
      "sampler": 0,
      "source": 1
    }
  ]
}
